STARTFONT 2.1
FONT -PfaEdit-Triskweline-Bold-R-Normal--13-120-75-75-M-80-ISO8859-1
SIZE 12 75 75
FONTBOUNDINGBOX 8 14 0 -2
COMMENT "Generated by fontforge, http://fontforge.sourceforge.net"
STARTPROPERTIES 26
FONT_NAME "Triskweline"
UNDERLINE_POSITION -100
UNDERLINE_THICKNESS 50
QUAD_WIDTH 13
X_HEIGHT 5
CAP_HEIGHT 8
FONTNAME_REGISTRY ""
FAMILY_NAME "Triskweline"
FOUNDRY "PfaEdit"
WEIGHT_NAME "Bold"
SETWIDTH_NAME "Normal"
SLANT "R"
ADD_STYLE_NAME ""
PIXEL_SIZE 13
POINT_SIZE 120
RESOLUTION_X 75
RESOLUTION_Y 75
RESOLUTION 75
SPACING "M"
AVERAGE_WIDTH 80
CHARSET_REGISTRY "ISO8859"
CHARSET_ENCODING "1"
CHARSET_COLLECTIONS "ISOLatin1Encoding"
FULL_NAME "Triskweline"
COPYRIGHT "Created by Hunter M with PfaEdit 1.0 (http://pfaedit.sf.net)"
WEIGHT 10
ENDPROPERTIES
CHARS 216
STARTCHAR space
ENCODING 32
SWIDTH 615 0
DWIDTH 8 0
BBX 1 1 7 -2
BITMAP
00
ENDCHAR
STARTCHAR exclam
ENCODING 33
SWIDTH 615 0
DWIDTH 8 0
BBX 2 10 3 -1
BITMAP
C0
C0
C0
C0
C0
C0
C0
00
C0
C0
ENDCHAR
STARTCHAR quotedbl
ENCODING 34
SWIDTH 615 0
DWIDTH 8 0
BBX 5 3 2 6
BITMAP
D8
D8
D8
ENDCHAR
STARTCHAR numbersign
ENCODING 35
SWIDTH 615 0
DWIDTH 8 0
BBX 6 9 1 0
BITMAP
68
68
FC
68
68
68
FC
68
68
ENDCHAR
STARTCHAR dollar
ENCODING 36
SWIDTH 615 0
DWIDTH 8 0
BBX 5 9 2 0
BITMAP
20
70
C8
C0
70
08
C8
70
20
ENDCHAR
STARTCHAR percent
ENCODING 37
SWIDTH 615 0
DWIDTH 8 0
BBX 7 9 1 0
BITMAP
60
D2
66
0C
18
30
6C
DA
8C
ENDCHAR
STARTCHAR ampersand
ENCODING 38
SWIDTH 615 0
DWIDTH 8 0
BBX 6 9 2 0
BITMAP
30
68
68
70
30
7C
D8
F8
6C
ENDCHAR
STARTCHAR quotesingle
ENCODING 39
SWIDTH 615 0
DWIDTH 8 0
BBX 2 3 3 6
BITMAP
C0
C0
C0
ENDCHAR
STARTCHAR parenleft
ENCODING 40
SWIDTH 615 0
DWIDTH 8 0
BBX 4 11 2 -2
BITMAP
30
60
60
C0
C0
C0
C0
C0
60
60
30
ENDCHAR
STARTCHAR parenright
ENCODING 41
SWIDTH 615 0
DWIDTH 8 0
BBX 4 11 2 -2
BITMAP
C0
60
60
30
30
30
30
30
60
60
C0
ENDCHAR
STARTCHAR asterisk
ENCODING 42
SWIDTH 615 0
DWIDTH 8 0
BBX 7 5 1 2
BITMAP
6C
38
FE
38
6C
ENDCHAR
STARTCHAR plus
ENCODING 43
SWIDTH 615 0
DWIDTH 8 0
BBX 8 7 0 0
BITMAP
18
18
18
FF
18
18
18
ENDCHAR
STARTCHAR comma
ENCODING 44
SWIDTH 615 0
DWIDTH 8 0
BBX 4 3 1 -2
BITMAP
30
60
C0
ENDCHAR
STARTCHAR hyphen
ENCODING 45
SWIDTH 615 0
DWIDTH 8 0
BBX 7 2 1 3
BITMAP
FE
FE
ENDCHAR
STARTCHAR period
ENCODING 46
SWIDTH 615 0
DWIDTH 8 0
BBX 2 2 3 -1
BITMAP
C0
C0
ENDCHAR
STARTCHAR slash
ENCODING 47
SWIDTH 615 0
DWIDTH 8 0
BBX 8 7 0 1
BITMAP
03
06
0C
18
30
60
C0
ENDCHAR
STARTCHAR zero
ENCODING 48
SWIDTH 615 0
DWIDTH 8 0
BBX 6 9 1 0
BITMAP
78
CC
CC
DC
FC
EC
CC
CC
78
ENDCHAR
STARTCHAR one
ENCODING 49
SWIDTH 615 0
DWIDTH 8 0
BBX 4 9 1 0
BITMAP
30
70
F0
30
30
30
30
30
30
ENDCHAR
STARTCHAR two
ENCODING 50
SWIDTH 615 0
DWIDTH 8 0
BBX 5 9 2 0
BITMAP
70
98
18
18
30
60
C0
C0
F8
ENDCHAR
STARTCHAR three
ENCODING 51
SWIDTH 615 0
DWIDTH 8 0
BBX 5 9 2 0
BITMAP
70
98
18
18
70
18
18
98
70
ENDCHAR
STARTCHAR four
ENCODING 52
SWIDTH 615 0
DWIDTH 8 0
BBX 7 9 0 0
BITMAP
0C
1C
3C
6C
CC
FE
0C
0C
0C
ENDCHAR
STARTCHAR five
ENCODING 53
SWIDTH 615 0
DWIDTH 8 0
BBX 6 9 1 0
BITMAP
FC
C0
C0
C0
F8
0C
0C
CC
78
ENDCHAR
STARTCHAR six
ENCODING 54
SWIDTH 615 0
DWIDTH 8 0
BBX 6 9 1 0
BITMAP
38
60
C0
C0
F8
CC
CC
CC
78
ENDCHAR
STARTCHAR seven
ENCODING 55
SWIDTH 615 0
DWIDTH 8 0
BBX 6 9 1 0
BITMAP
FC
0C
0C
18
18
30
30
60
60
ENDCHAR
STARTCHAR eight
ENCODING 56
SWIDTH 615 0
DWIDTH 8 0
BBX 6 9 1 0
BITMAP
78
CC
CC
CC
78
CC
CC
CC
78
ENDCHAR
STARTCHAR nine
ENCODING 57
SWIDTH 615 0
DWIDTH 8 0
BBX 6 9 1 0
BITMAP
78
CC
CC
CC
7C
0C
0C
18
70
ENDCHAR
STARTCHAR colon
ENCODING 58
SWIDTH 615 0
DWIDTH 8 0
BBX 2 7 3 -1
BITMAP
C0
C0
00
00
00
C0
C0
ENDCHAR
STARTCHAR semicolon
ENCODING 59
SWIDTH 615 0
DWIDTH 8 0
BBX 4 8 1 -2
BITMAP
30
30
00
00
00
30
60
C0
ENDCHAR
STARTCHAR less
ENCODING 60
SWIDTH 615 0
DWIDTH 8 0
BBX 5 7 1 0
BITMAP
18
30
60
C0
60
30
18
ENDCHAR
STARTCHAR equal
ENCODING 61
SWIDTH 615 0
DWIDTH 8 0
BBX 5 5 2 2
BITMAP
F8
F8
00
F8
F8
ENDCHAR
STARTCHAR greater
ENCODING 62
SWIDTH 615 0
DWIDTH 8 0
BBX 5 7 2 0
BITMAP
C0
60
30
18
30
60
C0
ENDCHAR
STARTCHAR question
ENCODING 63
SWIDTH 615 0
DWIDTH 8 0
BBX 6 10 1 -1
BITMAP
78
CC
0C
0C
18
30
30
00
30
30
ENDCHAR
STARTCHAR at
ENCODING 64
SWIDTH 615 0
DWIDTH 8 0
BBX 8 9 0 0
BITMAP
3E
61
DD
F5
F5
F5
DE
60
3C
ENDCHAR
STARTCHAR A
ENCODING 65
SWIDTH 615 0
DWIDTH 8 0
BBX 6 9 2 0
BITMAP
30
78
48
CC
CC
FC
CC
CC
CC
ENDCHAR
STARTCHAR B
ENCODING 66
SWIDTH 615 0
DWIDTH 8 0
BBX 6 9 2 0
BITMAP
F8
CC
CC
CC
F8
CC
CC
CC
F8
ENDCHAR
STARTCHAR C
ENCODING 67
SWIDTH 615 0
DWIDTH 8 0
BBX 7 9 1 0
BITMAP
3C
66
C0
C0
C0
C0
C0
66
3C
ENDCHAR
STARTCHAR D
ENCODING 68
SWIDTH 615 0
DWIDTH 8 0
BBX 6 9 2 0
BITMAP
F0
D8
CC
CC
CC
CC
CC
D8
F0
ENDCHAR
STARTCHAR E
ENCODING 69
SWIDTH 615 0
DWIDTH 8 0
BBX 6 9 2 0
BITMAP
FC
C0
C0
C0
F0
C0
C0
C0
FC
ENDCHAR
STARTCHAR F
ENCODING 70
SWIDTH 615 0
DWIDTH 8 0
BBX 6 9 2 0
BITMAP
FC
C0
C0
C0
F0
C0
C0
C0
C0
ENDCHAR
STARTCHAR G
ENCODING 71
SWIDTH 615 0
DWIDTH 8 0
BBX 7 9 1 0
BITMAP
3C
66
C0
C0
C0
CE
C2
66
3C
ENDCHAR
STARTCHAR H
ENCODING 72
SWIDTH 615 0
DWIDTH 8 0
BBX 7 9 1 0
BITMAP
C6
C6
C6
C6
FE
C6
C6
C6
C6
ENDCHAR
STARTCHAR I
ENCODING 73
SWIDTH 615 0
DWIDTH 8 0
BBX 4 9 2 0
BITMAP
F0
60
60
60
60
60
60
60
F0
ENDCHAR
STARTCHAR J
ENCODING 74
SWIDTH 615 0
DWIDTH 8 0
BBX 6 9 2 0
BITMAP
7C
0C
0C
0C
0C
0C
0C
CC
78
ENDCHAR
STARTCHAR K
ENCODING 75
SWIDTH 615 0
DWIDTH 8 0
BBX 7 9 1 0
BITMAP
C6
CC
D8
F0
E0
F0
D8
CC
C6
ENDCHAR
STARTCHAR L
ENCODING 76
SWIDTH 615 0
DWIDTH 8 0
BBX 6 9 2 0
BITMAP
C0
C0
C0
C0
C0
C0
C0
C0
FC
ENDCHAR
STARTCHAR M
ENCODING 77
SWIDTH 615 0
DWIDTH 8 0
BBX 8 9 0 0
BITMAP
C3
E7
FF
DB
DB
C3
C3
C3
C3
ENDCHAR
STARTCHAR N
ENCODING 78
SWIDTH 615 0
DWIDTH 8 0
BBX 7 9 1 0
BITMAP
C6
E6
F6
D6
DE
CE
CE
C6
C6
ENDCHAR
STARTCHAR O
ENCODING 79
SWIDTH 615 0
DWIDTH 8 0
BBX 8 9 0 0
BITMAP
3C
66
C3
C3
C3
C3
C3
66
3C
ENDCHAR
STARTCHAR P
ENCODING 80
SWIDTH 615 0
DWIDTH 8 0
BBX 7 9 1 0
BITMAP
FC
C6
C6
C6
FC
C0
C0
C0
C0
ENDCHAR
STARTCHAR Q
ENCODING 81
SWIDTH 615 0
DWIDTH 8 0
BBX 8 10 0 -1
BITMAP
3C
66
C3
C3
C3
CF
CF
66
3F
03
ENDCHAR
STARTCHAR R
ENCODING 82
SWIDTH 615 0
DWIDTH 8 0
BBX 7 9 1 0
BITMAP
FC
C6
C6
C6
FC
F0
D8
CC
C6
ENDCHAR
STARTCHAR S
ENCODING 83
SWIDTH 615 0
DWIDTH 8 0
BBX 7 9 1 0
BITMAP
7C
C6
C0
C0
7C
06
06
C6
7C
ENDCHAR
STARTCHAR T
ENCODING 84
SWIDTH 615 0
DWIDTH 8 0
BBX 8 9 0 0
BITMAP
FF
18
18
18
18
18
18
18
18
ENDCHAR
STARTCHAR U
ENCODING 85
SWIDTH 615 0
DWIDTH 8 0
BBX 7 9 1 0
BITMAP
C6
C6
C6
C6
C6
C6
C6
C6
7C
ENDCHAR
STARTCHAR V
ENCODING 86
SWIDTH 615 0
DWIDTH 8 0
BBX 8 9 0 0
BITMAP
C3
C3
C3
66
66
3C
3C
18
18
ENDCHAR
STARTCHAR W
ENCODING 87
SWIDTH 615 0
DWIDTH 8 0
BBX 8 9 0 0
BITMAP
C3
C3
C3
DB
DB
7E
7E
66
66
ENDCHAR
STARTCHAR X
ENCODING 88
SWIDTH 615 0
DWIDTH 8 0
BBX 8 9 0 0
BITMAP
C3
C3
66
3C
18
3C
66
C3
C3
ENDCHAR
STARTCHAR Y
ENCODING 89
SWIDTH 615 0
DWIDTH 8 0
BBX 6 9 1 0
BITMAP
CC
CC
CC
CC
78
30
30
30
30
ENDCHAR
STARTCHAR Z
ENCODING 90
SWIDTH 615 0
DWIDTH 8 0
BBX 8 9 0 0
BITMAP
FF
03
06
0C
18
30
60
C0
FF
ENDCHAR
STARTCHAR bracketleft
ENCODING 91
SWIDTH 615 0
DWIDTH 8 0
BBX 4 11 3 -2
BITMAP
F0
C0
C0
C0
C0
C0
C0
C0
C0
C0
F0
ENDCHAR
STARTCHAR backslash
ENCODING 92
SWIDTH 615 0
DWIDTH 8 0
BBX 8 7 0 1
BITMAP
C0
60
30
18
0C
06
03
ENDCHAR
STARTCHAR bracketright
ENCODING 93
SWIDTH 615 0
DWIDTH 8 0
BBX 4 11 2 -2
BITMAP
F0
30
30
30
30
30
30
30
30
30
F0
ENDCHAR
STARTCHAR asciicircum
ENCODING 94
SWIDTH 615 0
DWIDTH 8 0
BBX 6 3 1 7
BITMAP
30
78
CC
ENDCHAR
STARTCHAR underscore
ENCODING 95
SWIDTH 615 0
DWIDTH 8 0
BBX 8 2 0 -2
BITMAP
FF
FF
ENDCHAR
STARTCHAR grave
ENCODING 96
SWIDTH 615 0
DWIDTH 8 0
BBX 4 3 1 7
BITMAP
C0
60
30
ENDCHAR
STARTCHAR a
ENCODING 97
SWIDTH 615 0
DWIDTH 8 0
BBX 6 6 2 0
BITMAP
78
0C
7C
CC
CC
7C
ENDCHAR
STARTCHAR b
ENCODING 98
SWIDTH 615 0
DWIDTH 8 0
BBX 6 9 2 0
BITMAP
C0
C0
C0
F8
CC
CC
CC
CC
F8
ENDCHAR
STARTCHAR c
ENCODING 99
SWIDTH 615 0
DWIDTH 8 0
BBX 6 6 2 0
BITMAP
78
CC
C0
C0
CC
78
ENDCHAR
STARTCHAR d
ENCODING 100
SWIDTH 615 0
DWIDTH 8 0
BBX 6 9 2 0
BITMAP
0C
0C
0C
7C
CC
CC
CC
CC
7C
ENDCHAR
STARTCHAR e
ENCODING 101
SWIDTH 615 0
DWIDTH 8 0
BBX 6 6 2 0
BITMAP
78
CC
FC
C0
CC
78
ENDCHAR
STARTCHAR f
ENCODING 102
SWIDTH 615 0
DWIDTH 8 0
BBX 5 9 2 0
BITMAP
38
60
60
F8
60
60
60
60
60
ENDCHAR
STARTCHAR g
ENCODING 103
SWIDTH 615 0
DWIDTH 8 0
BBX 6 8 2 -2
BITMAP
7C
CC
CC
CC
7C
0C
0C
78
ENDCHAR
STARTCHAR h
ENCODING 104
SWIDTH 615 0
DWIDTH 8 0
BBX 6 9 2 0
BITMAP
C0
C0
C0
F8
CC
CC
CC
CC
CC
ENDCHAR
STARTCHAR i
ENCODING 105
SWIDTH 615 0
DWIDTH 8 0
BBX 2 9 3 0
BITMAP
C0
C0
00
C0
C0
C0
C0
C0
C0
ENDCHAR
STARTCHAR j
ENCODING 106
SWIDTH 615 0
DWIDTH 8 0
BBX 4 11 2 -2
BITMAP
30
30
00
30
30
30
30
30
30
30
E0
ENDCHAR
STARTCHAR k
ENCODING 107
SWIDTH 615 0
DWIDTH 8 0
BBX 5 9 3 0
BITMAP
C0
C0
C0
D8
F0
E0
F0
D8
C8
ENDCHAR
STARTCHAR l
ENCODING 108
SWIDTH 615 0
DWIDTH 8 0
BBX 5 9 3 0
BITMAP
C0
C0
C0
C0
C0
C0
C0
D8
70
ENDCHAR
STARTCHAR m
ENCODING 109
SWIDTH 615 0
DWIDTH 8 0
BBX 7 6 1 0
BITMAP
EC
DA
DA
DA
DA
DA
ENDCHAR
STARTCHAR n
ENCODING 110
SWIDTH 615 0
DWIDTH 8 0
BBX 6 6 2 0
BITMAP
B8
CC
CC
CC
CC
CC
ENDCHAR
STARTCHAR o
ENCODING 111
SWIDTH 615 0
DWIDTH 8 0
BBX 6 6 2 0
BITMAP
78
CC
CC
CC
CC
78
ENDCHAR
STARTCHAR p
ENCODING 112
SWIDTH 615 0
DWIDTH 8 0
BBX 6 8 2 -2
BITMAP
F8
CC
CC
CC
CC
F8
C0
C0
ENDCHAR
STARTCHAR q
ENCODING 113
SWIDTH 615 0
DWIDTH 8 0
BBX 6 8 2 -2
BITMAP
7C
CC
CC
CC
CC
7C
0C
0C
ENDCHAR
STARTCHAR r
ENCODING 114
SWIDTH 615 0
DWIDTH 8 0
BBX 6 6 2 0
BITMAP
D8
E4
C0
C0
C0
C0
ENDCHAR
STARTCHAR s
ENCODING 115
SWIDTH 615 0
DWIDTH 8 0
BBX 6 6 2 0
BITMAP
78
CC
60
18
CC
78
ENDCHAR
STARTCHAR t
ENCODING 116
SWIDTH 615 0
DWIDTH 8 0
BBX 5 8 2 0
BITMAP
60
60
F8
60
60
60
60
38
ENDCHAR
STARTCHAR u
ENCODING 117
SWIDTH 615 0
DWIDTH 8 0
BBX 6 6 2 0
BITMAP
CC
CC
CC
CC
CC
74
ENDCHAR
STARTCHAR v
ENCODING 118
SWIDTH 615 0
DWIDTH 8 0
BBX 6 6 1 0
BITMAP
C4
C4
68
68
68
30
ENDCHAR
STARTCHAR w
ENCODING 119
SWIDTH 615 0
DWIDTH 8 0
BBX 8 6 0 0
BITMAP
C1
C1
6A
6A
6A
34
ENDCHAR
STARTCHAR x
ENCODING 120
SWIDTH 615 0
DWIDTH 8 0
BBX 5 6 2 0
BITMAP
D8
D8
70
70
D8
D8
ENDCHAR
STARTCHAR y
ENCODING 121
SWIDTH 615 0
DWIDTH 8 0
BBX 7 8 1 -2
BITMAP
C6
C6
6C
28
38
10
30
60
ENDCHAR
STARTCHAR z
ENCODING 122
SWIDTH 615 0
DWIDTH 8 0
BBX 6 6 2 0
BITMAP
FC
18
30
60
C0
FC
ENDCHAR
STARTCHAR braceleft
ENCODING 123
SWIDTH 615 0
DWIDTH 8 0
BBX 6 11 1 -2
BITMAP
1C
30
30
30
30
E0
30
30
30
30
1C
ENDCHAR
STARTCHAR bar
ENCODING 124
SWIDTH 615 0
DWIDTH 8 0
BBX 2 12 3 -2
BITMAP
C0
C0
C0
C0
C0
C0
C0
C0
C0
C0
C0
C0
ENDCHAR
STARTCHAR braceright
ENCODING 125
SWIDTH 615 0
DWIDTH 8 0
BBX 6 11 1 -2
BITMAP
E0
30
30
30
30
1C
30
30
30
30
E0
ENDCHAR
STARTCHAR asciitilde
ENCODING 126
SWIDTH 615 0
DWIDTH 8 0
BBX 7 3 1 5
BITMAP
66
FE
DC
ENDCHAR
STARTCHAR nonbreakingspace
ENCODING 160
SWIDTH 615 0
DWIDTH 8 0
BBX 1 1 7 -2
BITMAP
00
ENDCHAR
STARTCHAR exclamdown
ENCODING 161
SWIDTH 615 0
DWIDTH 8 0
BBX 2 9 3 0
BITMAP
C0
C0
00
C0
C0
C0
C0
C0
C0
ENDCHAR
STARTCHAR cent
ENCODING 162
SWIDTH 615 0
DWIDTH 8 0
BBX 5 7 2 0
BITMAP
20
70
D8
C0
D8
70
20
ENDCHAR
STARTCHAR sterling
ENCODING 163
SWIDTH 615 0
DWIDTH 8 0
BBX 6 8 1 0
BITMAP
70
C8
C0
60
F8
60
60
FC
ENDCHAR
STARTCHAR currency
ENCODING 164
SWIDTH 615 0
DWIDTH 8 0
BBX 7 7 1 2
BITMAP
82
7C
6C
6C
6C
7C
82
ENDCHAR
STARTCHAR yen
ENCODING 165
SWIDTH 615 0
DWIDTH 8 0
BBX 8 8 0 0
BITMAP
F7
62
FF
62
FF
18
18
3C
ENDCHAR
STARTCHAR brokenbar
ENCODING 166
SWIDTH 615 0
DWIDTH 8 0
BBX 2 11 3 -2
BITMAP
C0
C0
C0
C0
C0
00
C0
C0
C0
C0
C0
ENDCHAR
STARTCHAR section
ENCODING 167
SWIDTH 615 0
DWIDTH 8 0
BBX 7 9 0 0
BITMAP
3C
62
50
68
34
1A
0E
CC
78
ENDCHAR
STARTCHAR dieresis
ENCODING 168
SWIDTH 615 0
DWIDTH 8 0
BBX 6 2 1 7
BITMAP
CC
CC
ENDCHAR
STARTCHAR copyright
ENCODING 169
SWIDTH 615 0
DWIDTH 8 0
BBX 8 8 0 1
BITMAP
3C
62
CD
D9
D9
CD
62
3C
ENDCHAR
STARTCHAR ordfeminine
ENCODING 170
SWIDTH 615 0
DWIDTH 8 0
BBX 4 8 2 1
BITMAP
60
30
70
B0
70
00
F0
F0
ENDCHAR
STARTCHAR guillemotleft
ENCODING 171
SWIDTH 615 0
DWIDTH 8 0
BBX 7 5 1 0
BITMAP
36
6C
D8
6C
36
ENDCHAR
STARTCHAR logicalnot
ENCODING 172
SWIDTH 615 0
DWIDTH 8 0
BBX 5 4 2 2
BITMAP
F8
F8
08
08
ENDCHAR
STARTCHAR softhyphen
ENCODING 173
SWIDTH 615 0
DWIDTH 8 0
BBX 7 2 1 2
BITMAP
FE
FE
ENDCHAR
STARTCHAR registered
ENCODING 174
SWIDTH 615 0
DWIDTH 8 0
BBX 8 8 0 1
BITMAP
3C
62
D9
D5
D9
D5
62
3C
ENDCHAR
STARTCHAR macron
ENCODING 175
SWIDTH 615 0
DWIDTH 8 0
BBX 8 2 0 8
BITMAP
FF
FF
ENDCHAR
STARTCHAR degree
ENCODING 176
SWIDTH 615 0
DWIDTH 8 0
BBX 4 3 2 6
BITMAP
60
D0
60
ENDCHAR
STARTCHAR plusminus
ENCODING 177
SWIDTH 615 0
DWIDTH 8 0
BBX 7 10 1 -1
BITMAP
30
30
30
FE
30
30
30
00
FE
FE
ENDCHAR
STARTCHAR uni00B2
ENCODING 178
SWIDTH 615 0
DWIDTH 8 0
BBX 4 5 2 4
BITMAP
60
D0
10
60
F0
ENDCHAR
STARTCHAR uni00B3
ENCODING 179
SWIDTH 615 0
DWIDTH 8 0
BBX 3 5 3 4
BITMAP
C0
60
C0
60
C0
ENDCHAR
STARTCHAR acute
ENCODING 180
SWIDTH 615 0
DWIDTH 8 0
BBX 4 3 3 7
BITMAP
30
60
C0
ENDCHAR
STARTCHAR paragraph
ENCODING 182
SWIDTH 615 0
DWIDTH 8 0
BBX 6 9 1 0
BITMAP
7C
F4
F4
F4
74
34
34
34
34
ENDCHAR
STARTCHAR periodcentered
ENCODING 183
SWIDTH 615 0
DWIDTH 8 0
BBX 2 2 3 2
BITMAP
C0
C0
ENDCHAR
STARTCHAR cedilla
ENCODING 184
SWIDTH 615 0
DWIDTH 8 0
BBX 4 3 2 -2
BITMAP
60
30
E0
ENDCHAR
STARTCHAR uni00B9
ENCODING 185
SWIDTH 615 0
DWIDTH 8 0
BBX 3 5 2 4
BITMAP
E0
60
60
60
60
ENDCHAR
STARTCHAR ordmasculine
ENCODING 186
SWIDTH 615 0
DWIDTH 8 0
BBX 4 8 2 1
BITMAP
60
D0
D0
D0
60
00
F0
F0
ENDCHAR
STARTCHAR guillemotright
ENCODING 187
SWIDTH 615 0
DWIDTH 8 0
BBX 7 5 1 0
BITMAP
D8
6C
36
6C
D8
ENDCHAR
STARTCHAR onequarter
ENCODING 188
SWIDTH 615 0
DWIDTH 8 0
BBX 8 9 0 0
BITMAP
E0
63
66
6C
F9
33
65
CF
03
ENDCHAR
STARTCHAR onehalf
ENCODING 189
SWIDTH 615 0
DWIDTH 8 0
BBX 8 9 0 0
BITMAP
E0
63
66
6C
FE
3D
63
C6
0F
ENDCHAR
STARTCHAR threequarters
ENCODING 190
SWIDTH 615 0
DWIDTH 8 0
BBX 8 9 0 0
BITMAP
E0
33
66
3C
FB
37
6D
CF
03
ENDCHAR
STARTCHAR questiondown
ENCODING 191
SWIDTH 615 0
DWIDTH 8 0
BBX 6 10 1 0
BITMAP
30
30
00
30
30
60
C0
C0
C4
78
ENDCHAR
STARTCHAR Agrave
ENCODING 192
SWIDTH 615 0
DWIDTH 8 0
BBX 6 11 2 0
BITMAP
20
10
38
78
48
CC
CC
FC
CC
CC
CC
ENDCHAR
STARTCHAR Aacute
ENCODING 193
SWIDTH 615 0
DWIDTH 8 0
BBX 6 11 2 0
BITMAP
10
20
30
78
48
CC
CC
FC
CC
CC
CC
ENDCHAR
STARTCHAR Acircumflex
ENCODING 194
SWIDTH 615 0
DWIDTH 8 0
BBX 6 11 2 0
BITMAP
30
48
30
78
48
CC
CC
FC
CC
CC
CC
ENDCHAR
STARTCHAR Atilde
ENCODING 195
SWIDTH 615 0
DWIDTH 8 0
BBX 7 11 1 0
BITMAP
72
DC
18
3C
24
66
66
7E
66
66
66
ENDCHAR
STARTCHAR Adieresis
ENCODING 196
SWIDTH 615 0
DWIDTH 8 0
BBX 6 12 2 0
BITMAP
D8
D8
00
30
78
78
48
CC
FC
CC
CC
CC
ENDCHAR
STARTCHAR Aring
ENCODING 197
SWIDTH 615 0
DWIDTH 8 0
BBX 6 11 2 0
BITMAP
70
C8
70
78
48
CC
CC
FC
CC
CC
CC
ENDCHAR
STARTCHAR AE
ENCODING 198
SWIDTH 615 0
DWIDTH 8 0
BBX 7 9 1 0
BITMAP
3E
58
58
58
DC
D8
F8
D8
DE
ENDCHAR
STARTCHAR Ccedilla
ENCODING 199
SWIDTH 615 0
DWIDTH 8 0
BBX 7 10 1 -2
BITMAP
3C
66
C0
C0
C0
C0
66
3C
18
38
ENDCHAR
STARTCHAR Egrave
ENCODING 200
SWIDTH 615 0
DWIDTH 8 0
BBX 6 11 2 0
BITMAP
40
20
FC
80
80
80
F0
80
80
80
FC
ENDCHAR
STARTCHAR Eacute
ENCODING 201
SWIDTH 615 0
DWIDTH 8 0
BBX 6 11 2 0
BITMAP
10
20
FC
80
80
80
F0
80
80
80
FC
ENDCHAR
STARTCHAR Ecircumflex
ENCODING 202
SWIDTH 615 0
DWIDTH 8 0
BBX 6 11 2 0
BITMAP
20
50
FC
80
80
80
F0
80
80
80
FC
ENDCHAR
STARTCHAR Edieresis
ENCODING 203
SWIDTH 615 0
DWIDTH 8 0
BBX 6 11 2 0
BITMAP
88
00
FC
80
80
80
F0
80
80
80
FC
ENDCHAR
STARTCHAR Igrave
ENCODING 204
SWIDTH 615 0
DWIDTH 8 0
BBX 3 11 3 0
BITMAP
80
40
60
40
40
40
40
40
40
40
40
ENDCHAR
STARTCHAR Iacute
ENCODING 205
SWIDTH 615 0
DWIDTH 8 0
BBX 3 11 3 0
BITMAP
20
40
C0
40
40
40
40
40
40
40
40
ENDCHAR
STARTCHAR Icircumflex
ENCODING 206
SWIDTH 615 0
DWIDTH 8 0
BBX 3 11 3 0
BITMAP
40
A0
40
40
40
40
40
40
40
40
40
ENDCHAR
STARTCHAR Idieresis
ENCODING 207
SWIDTH 615 0
DWIDTH 8 0
BBX 3 11 3 0
BITMAP
A0
00
40
40
40
40
40
40
40
40
40
ENDCHAR
STARTCHAR Eth
ENCODING 208
SWIDTH 615 0
DWIDTH 8 0
BBX 7 9 1 0
BITMAP
78
44
42
42
F2
42
42
44
78
ENDCHAR
STARTCHAR Ntilde
ENCODING 209
SWIDTH 615 0
DWIDTH 8 0
BBX 7 11 1 0
BITMAP
72
8C
42
62
62
52
4A
4A
46
46
42
ENDCHAR
STARTCHAR Ograve
ENCODING 210
SWIDTH 615 0
DWIDTH 8 0
BBX 7 11 1 0
BITMAP
20
10
38
44
82
82
82
82
82
44
38
ENDCHAR
STARTCHAR Oacute
ENCODING 211
SWIDTH 615 0
DWIDTH 8 0
BBX 7 11 1 0
BITMAP
08
10
38
44
82
82
82
82
82
44
38
ENDCHAR
STARTCHAR Ocircumflex
ENCODING 212
SWIDTH 615 0
DWIDTH 8 0
BBX 7 11 1 0
BITMAP
10
28
38
44
82
82
82
82
82
44
38
ENDCHAR
STARTCHAR Otilde
ENCODING 213
SWIDTH 615 0
DWIDTH 8 0
BBX 7 11 1 0
BITMAP
72
9C
38
44
82
82
82
82
82
44
38
ENDCHAR
STARTCHAR Odieresis
ENCODING 214
SWIDTH 615 0
DWIDTH 8 0
BBX 7 11 1 0
BITMAP
44
00
38
44
82
82
82
82
82
44
38
ENDCHAR
STARTCHAR multiply
ENCODING 215
SWIDTH 615 0
DWIDTH 8 0
BBX 7 7 1 0
BITMAP
82
44
28
10
28
44
82
ENDCHAR
STARTCHAR Oslash
ENCODING 216
SWIDTH 615 0
DWIDTH 8 0
BBX 7 9 1 0
BITMAP
3A
44
8A
8A
92
A2
A2
44
B8
ENDCHAR
STARTCHAR Ugrave
ENCODING 217
SWIDTH 615 0
DWIDTH 8 0
BBX 7 11 1 0
BITMAP
40
20
D6
C6
C6
C6
C6
C6
C6
C6
7C
ENDCHAR
STARTCHAR Uacute
ENCODING 218
SWIDTH 615 0
DWIDTH 8 0
BBX 7 11 1 0
BITMAP
04
08
D6
C6
C6
C6
C6
C6
C6
C6
7C
ENDCHAR
STARTCHAR Ucircumflex
ENCODING 219
SWIDTH 615 0
DWIDTH 8 0
BBX 7 11 1 0
BITMAP
18
18
C6
C6
C6
C6
C6
C6
C6
C6
7C
ENDCHAR
STARTCHAR Udieresis
ENCODING 220
SWIDTH 615 0
DWIDTH 8 0
BBX 7 12 1 0
BITMAP
C6
C6
00
C6
C6
C6
C6
C6
C6
C6
C6
7C
ENDCHAR
STARTCHAR Yacute
ENCODING 221
SWIDTH 615 0
DWIDTH 8 0
BBX 8 11 0 0
BITMAP
08
10
CB
C3
C3
66
3C
18
18
18
18
ENDCHAR
STARTCHAR Thorn
ENCODING 222
SWIDTH 615 0
DWIDTH 8 0
BBX 6 9 2 0
BITMAP
C0
C0
F8
CC
CC
CC
F8
C0
C0
ENDCHAR
STARTCHAR germandbls
ENCODING 223
SWIDTH 615 0
DWIDTH 8 0
BBX 6 9 2 0
BITMAP
70
C8
C8
C8
D8
C4
C4
C4
D8
ENDCHAR
STARTCHAR agrave
ENCODING 224
SWIDTH 615 0
DWIDTH 8 0
BBX 6 9 2 0
BITMAP
60
30
00
78
0C
7C
CC
CC
7C
ENDCHAR
STARTCHAR aacute
ENCODING 225
SWIDTH 615 0
DWIDTH 8 0
BBX 6 9 2 0
BITMAP
18
30
00
78
0C
7C
CC
CC
7C
ENDCHAR
STARTCHAR acircumflex
ENCODING 226
SWIDTH 615 0
DWIDTH 8 0
BBX 6 9 2 0
BITMAP
30
68
00
78
0C
7C
CC
CC
7C
ENDCHAR
STARTCHAR atilde
ENCODING 227
SWIDTH 615 0
DWIDTH 8 0
BBX 6 9 2 0
BITMAP
64
98
00
78
0C
7C
CC
CC
7C
ENDCHAR
STARTCHAR adieresis
ENCODING 228
SWIDTH 615 0
DWIDTH 8 0
BBX 6 9 2 0
BITMAP
D8
D8
00
78
0C
7C
CC
CC
7C
ENDCHAR
STARTCHAR aring
ENCODING 229
SWIDTH 615 0
DWIDTH 8 0
BBX 6 10 2 0
BITMAP
20
50
20
00
78
0C
7C
CC
CC
7C
ENDCHAR
STARTCHAR ae
ENCODING 230
SWIDTH 615 0
DWIDTH 8 0
BBX 7 6 1 0
BITMAP
6C
1A
7E
D8
DA
6C
ENDCHAR
STARTCHAR ccedilla
ENCODING 231
SWIDTH 615 0
DWIDTH 8 0
BBX 6 8 2 -2
BITMAP
78
CC
C0
C0
CC
78
30
70
ENDCHAR
STARTCHAR egrave
ENCODING 232
SWIDTH 615 0
DWIDTH 8 0
BBX 6 9 2 0
BITMAP
60
30
00
78
CC
FC
C0
CC
78
ENDCHAR
STARTCHAR eacute
ENCODING 233
SWIDTH 615 0
DWIDTH 8 0
BBX 6 9 2 0
BITMAP
30
60
00
78
CC
FC
C0
CC
78
ENDCHAR
STARTCHAR ecircumflex
ENCODING 234
SWIDTH 615 0
DWIDTH 8 0
BBX 6 9 2 0
BITMAP
30
68
00
78
CC
FC
C0
CC
78
ENDCHAR
STARTCHAR edieresis
ENCODING 235
SWIDTH 615 0
DWIDTH 8 0
BBX 6 9 2 0
BITMAP
D8
D8
00
78
CC
FC
C0
CC
78
ENDCHAR
STARTCHAR igrave
ENCODING 236
SWIDTH 615 0
DWIDTH 8 0
BBX 3 9 2 0
BITMAP
C0
60
00
60
60
60
60
60
60
ENDCHAR
STARTCHAR iacute
ENCODING 237
SWIDTH 615 0
DWIDTH 8 0
BBX 3 9 3 0
BITMAP
60
C0
00
C0
C0
C0
C0
C0
C0
ENDCHAR
STARTCHAR icircumflex
ENCODING 238
SWIDTH 615 0
DWIDTH 8 0
BBX 4 9 2 0
BITMAP
60
D0
00
60
60
60
60
60
60
ENDCHAR
STARTCHAR idieresis
ENCODING 239
SWIDTH 615 0
DWIDTH 8 0
BBX 3 10 3 0
BITMAP
60
60
00
C0
C0
C0
C0
C0
C0
C0
ENDCHAR
STARTCHAR eth
ENCODING 240
SWIDTH 615 0
DWIDTH 8 0
BBX 6 9 2 0
BITMAP
50
20
50
08
78
84
84
84
78
ENDCHAR
STARTCHAR ntilde
ENCODING 241
SWIDTH 615 0
DWIDTH 8 0
BBX 6 9 2 0
BITMAP
64
98
00
B8
CC
CC
CC
CC
CC
ENDCHAR
STARTCHAR ograve
ENCODING 242
SWIDTH 615 0
DWIDTH 8 0
BBX 6 9 2 0
BITMAP
20
10
00
78
CC
CC
CC
CC
78
ENDCHAR
STARTCHAR oacute
ENCODING 243
SWIDTH 615 0
DWIDTH 8 0
BBX 6 9 2 0
BITMAP
10
20
00
78
CC
CC
CC
CC
78
ENDCHAR
STARTCHAR ocircumflex
ENCODING 244
SWIDTH 615 0
DWIDTH 8 0
BBX 6 9 2 0
BITMAP
30
48
00
78
CC
CC
CC
CC
78
ENDCHAR
STARTCHAR otilde
ENCODING 245
SWIDTH 615 0
DWIDTH 8 0
BBX 6 9 2 0
BITMAP
64
98
00
78
CC
CC
CC
CC
78
ENDCHAR
STARTCHAR odieresis
ENCODING 246
SWIDTH 615 0
DWIDTH 8 0
BBX 6 9 2 0
BITMAP
D8
D8
00
78
CC
CC
CC
CC
78
ENDCHAR
STARTCHAR divide
ENCODING 247
SWIDTH 615 0
DWIDTH 8 0
BBX 6 8 1 -1
BITMAP
30
30
00
FC
FC
00
30
30
ENDCHAR
STARTCHAR oslash
ENCODING 248
SWIDTH 615 0
DWIDTH 8 0
BBX 6 6 2 0
BITMAP
7C
8C
94
A4
C4
F8
ENDCHAR
STARTCHAR ugrave
ENCODING 249
SWIDTH 615 0
DWIDTH 8 0
BBX 6 9 2 0
BITMAP
20
10
00
84
84
84
84
8C
74
ENDCHAR
STARTCHAR uacute
ENCODING 250
SWIDTH 615 0
DWIDTH 8 0
BBX 6 9 2 0
BITMAP
10
20
00
84
84
84
84
8C
74
ENDCHAR
STARTCHAR ucircumflex
ENCODING 251
SWIDTH 615 0
DWIDTH 8 0
BBX 6 9 2 0
BITMAP
10
28
00
84
84
84
84
8C
74
ENDCHAR
STARTCHAR udieresis
ENCODING 252
SWIDTH 615 0
DWIDTH 8 0
BBX 6 9 2 0
BITMAP
48
00
00
84
84
84
84
8C
74
ENDCHAR
STARTCHAR yacute
ENCODING 253
SWIDTH 615 0
DWIDTH 8 0
BBX 7 11 1 -2
BITMAP
08
10
00
C6
C6
6C
28
38
10
30
60
ENDCHAR
STARTCHAR thorn
ENCODING 254
SWIDTH 615 0
DWIDTH 8 0
BBX 6 11 2 -2
BITMAP
C0
C0
C0
F8
CC
CC
CC
CC
F8
C0
C0
ENDCHAR
STARTCHAR ydieresis
ENCODING 255
SWIDTH 615 0
DWIDTH 8 0
BBX 7 11 1 -2
BITMAP
CC
CC
00
C6
C6
6C
28
38
10
30
60
ENDCHAR
STARTCHAR Euro
ENCODING -1
SWIDTH 615 0
DWIDTH 8 0
BBX 7 9 1 0
BITMAP
1C
32
60
FC
60
F8
60
32
1C
ENDCHAR
STARTCHAR quotesinglbase
ENCODING -1
SWIDTH 615 0
DWIDTH 8 0
BBX 3 9 3 -1
BITMAP
E0
E0
E0
E0
E0
E0
E0
E0
E0
ENDCHAR
STARTCHAR florin
ENCODING -1
SWIDTH 615 0
DWIDTH 8 0
BBX 3 9 3 -1
BITMAP
E0
E0
E0
E0
E0
E0
E0
E0
E0
ENDCHAR
STARTCHAR quotedblbase
ENCODING -1
SWIDTH 615 0
DWIDTH 8 0
BBX 3 9 3 -1
BITMAP
E0
E0
E0
E0
E0
E0
E0
E0
E0
ENDCHAR
STARTCHAR ellipsis
ENCODING -1
SWIDTH 615 0
DWIDTH 8 0
BBX 3 9 3 -1
BITMAP
E0
E0
E0
E0
E0
E0
E0
E0
E0
ENDCHAR
STARTCHAR dagger
ENCODING -1
SWIDTH 615 0
DWIDTH 8 0
BBX 3 9 3 -1
BITMAP
E0
E0
E0
E0
E0
E0
E0
E0
E0
ENDCHAR
STARTCHAR daggerdbl
ENCODING -1
SWIDTH 615 0
DWIDTH 8 0
BBX 3 9 3 -1
BITMAP
E0
E0
E0
E0
E0
E0
E0
E0
E0
ENDCHAR
STARTCHAR circumflex
ENCODING -1
SWIDTH 615 0
DWIDTH 8 0
BBX 3 9 3 -1
BITMAP
E0
E0
E0
E0
E0
E0
E0
E0
E0
ENDCHAR
STARTCHAR perthousand
ENCODING -1
SWIDTH 615 0
DWIDTH 8 0
BBX 3 9 3 -1
BITMAP
E0
E0
E0
E0
E0
E0
E0
E0
E0
ENDCHAR
STARTCHAR Scaron
ENCODING -1
SWIDTH 615 0
DWIDTH 8 0
BBX 3 9 3 -1
BITMAP
E0
E0
E0
E0
E0
E0
E0
E0
E0
ENDCHAR
STARTCHAR guilsinglleft
ENCODING -1
SWIDTH 615 0
DWIDTH 8 0
BBX 3 9 3 -1
BITMAP
E0
E0
E0
E0
E0
E0
E0
E0
E0
ENDCHAR
STARTCHAR OE
ENCODING -1
SWIDTH 615 0
DWIDTH 8 0
BBX 3 9 3 -1
BITMAP
E0
E0
E0
E0
E0
E0
E0
E0
E0
ENDCHAR
STARTCHAR quoteleft
ENCODING -1
SWIDTH 615 0
DWIDTH 8 0
BBX 3 2 2 7
BITMAP
C0
60
ENDCHAR
STARTCHAR quoteright
ENCODING -1
SWIDTH 615 0
DWIDTH 8 0
BBX 3 2 2 7
BITMAP
60
C0
ENDCHAR
STARTCHAR quotedblleft
ENCODING -1
SWIDTH 615 0
DWIDTH 8 0
BBX 3 9 3 -1
BITMAP
E0
E0
E0
E0
E0
E0
E0
E0
E0
ENDCHAR
STARTCHAR quotedblright
ENCODING -1
SWIDTH 615 0
DWIDTH 8 0
BBX 3 9 3 -1
BITMAP
E0
E0
E0
E0
E0
E0
E0
E0
E0
ENDCHAR
STARTCHAR bullet
ENCODING -1
SWIDTH 615 0
DWIDTH 8 0
BBX 3 9 3 -1
BITMAP
E0
E0
E0
E0
E0
E0
E0
E0
E0
ENDCHAR
STARTCHAR endash
ENCODING -1
SWIDTH 615 0
DWIDTH 8 0
BBX 3 9 3 -1
BITMAP
E0
E0
E0
E0
E0
E0
E0
E0
E0
ENDCHAR
STARTCHAR emdash
ENCODING -1
SWIDTH 615 0
DWIDTH 8 0
BBX 3 9 3 -1
BITMAP
E0
E0
E0
E0
E0
E0
E0
E0
E0
ENDCHAR
STARTCHAR tilde
ENCODING -1
SWIDTH 615 0
DWIDTH 8 0
BBX 3 9 3 -1
BITMAP
E0
E0
E0
E0
E0
E0
E0
E0
E0
ENDCHAR
STARTCHAR trademark
ENCODING -1
SWIDTH 615 0
DWIDTH 8 0
BBX 3 9 3 -1
BITMAP
E0
E0
E0
E0
E0
E0
E0
E0
E0
ENDCHAR
STARTCHAR scaron
ENCODING -1
SWIDTH 615 0
DWIDTH 8 0
BBX 3 9 3 -1
BITMAP
E0
E0
E0
E0
E0
E0
E0
E0
E0
ENDCHAR
STARTCHAR guilsinglright
ENCODING -1
SWIDTH 615 0
DWIDTH 8 0
BBX 3 9 3 -1
BITMAP
E0
E0
E0
E0
E0
E0
E0
E0
E0
ENDCHAR
STARTCHAR oe
ENCODING -1
SWIDTH 615 0
DWIDTH 8 0
BBX 3 9 3 -1
BITMAP
E0
E0
E0
E0
E0
E0
E0
E0
E0
ENDCHAR
STARTCHAR Ydieresis
ENCODING -1
SWIDTH 615 0
DWIDTH 8 0
BBX 3 9 3 -1
BITMAP
E0
E0
E0
E0
E0
E0
E0
E0
E0
ENDCHAR
STARTCHAR mu
ENCODING -1
SWIDTH 615 0
DWIDTH 8 0
BBX 5 8 2 -2
BITMAP
C8
C8
C8
C8
C8
F0
88
80
ENDCHAR
ENDFONT
